<svg xmlns="http://www.w3.org/2000/svg" viewBox="0 0 240 240">
  <defs>
    <linearGradient id="a" x1="0.667" x2="0.417" y1="0.167" y2="0.75">
      <stop offset="0" stop-color="#37aee2"/>
      <stop offset="1" stop-color="#1e96c8"/>
    </linearGradient>
  </defs>
  <circle cx="120" cy="120" r="120" fill="url(#a)"/>
  <path fill="#fff" d="M98 175c-3.9 0-3.2-1.5-4.6-5.2L82 132.2 152.8 88l8.3 2.2-6.9 18.8L98 175z"/>
  <path fill="#d2e5f1" d="M98 175c3 0 4.3-1.4 6-3l16-15.6-20-12L98 175z"/>
  <path fill="#fff" d="M100 144.4l48.4 35.7c5.5 3 9.5 1.5 10.9-5.1l19.7-92.8c2-8.1-3.1-11.7-8.4-9.3L55 117.5c-7.9 3.2-7.8 7.6-1.4 9.5l29.7 9.3L152 93c3.2-2 6.2-.9 3.8 1.3L100 144.4z"/>
</svg>